ISO-10303-21;
HEADER;
/* Generated by software containing ST-Developer
 * from STEP Tools, Inc. (www.steptools.com) 
 */

FILE_DESCRIPTION(
/* description */ ('KiCad electronic assembly'),
/* implementation_level */ '2;1');

FILE_NAME(
/* name */ 'Bottom.step',
/* time_stamp */ '2026-05-22T23:29:18+05:30',
/* author */ (''),
/* organization */ (''),
/* preprocessor_version */ 'ST-DEVELOPER v20.1',
/* originating_system */ 'Autodesk Translation Framework v15.8.0.0',
/* authorisation */ '');

FILE_SCHEMA (('AUTOMOTIVE_DESIGN { 1 0 10303 214 3 1 1 }'));
ENDSEC;

DATA;
#10=MECHANICAL_DESIGN_GEOMETRIC_PRESENTATION_REPRESENTATION('',(#13),#1097);
#11=SHAPE_REPRESENTATION_RELATIONSHIP('SRR','None',#1103,#12);
#12=ADVANCED_BREP_SHAPE_REPRESENTATION('',(#14),#1096);
#13=STYLED_ITEM('',(#1112),#14);
#14=MANIFOLD_SOLID_BREP('Body8',#654);
#15=ELLIPSE('',#710,2.12132034355964,1.5);
#16=ELLIPSE('',#711,2.12132034355964,1.5);
#17=ELLIPSE('',#713,2.12132034355965,1.5);
#18=ELLIPSE('',#715,2.12132034355964,1.5);
#19=FACE_BOUND('',#111,.T.);
#20=FACE_BOUND('',#113,.T.);
#21=FACE_BOUND('',#115,.T.);
#22=FACE_BOUND('',#119,.T.);
#23=FACE_BOUND('',#124,.T.);
#24=FACE_BOUND('',#125,.T.);
#25=FACE_BOUND('',#126,.T.);
#26=FACE_BOUND('',#136,.T.);
#27=FACE_BOUND('',#139,.T.);
#28=FACE_BOUND('',#146,.T.);
#29=FACE_BOUND('',#148,.T.);
#30=FACE_BOUND('',#149,.T.);
#31=FACE_BOUND('',#150,.T.);
#32=FACE_BOUND('',#151,.T.);
#33=FACE_BOUND('',#154,.T.);
#34=PLANE('',#674);
#35=PLANE('',#677);
#36=PLANE('',#679);
#37=PLANE('',#685);
#38=PLANE('',#691);
#39=PLANE('',#692);
#40=PLANE('',#699);
#41=PLANE('',#700);
#42=PLANE('',#704);
#43=PLANE('',#705);
#44=PLANE('',#706);
#45=PLANE('',#707);
#46=PLANE('',#708);
#47=PLANE('',#717);
#48=PLANE('',#718);
#49=PLANE('',#719);
#50=PLANE('',#720);
#51=PLANE('',#721);
#52=CYLINDRICAL_SURFACE('',#663,0.95);
#53=CYLINDRICAL_SURFACE('',#667,0.95);
#54=CYLINDRICAL_SURFACE('',#672,0.95);
#55=CYLINDRICAL_SURFACE('',#684,0.95);
#56=CYLINDRICAL_SURFACE('',#688,3.);
#57=CYLINDRICAL_SURFACE('',#690,0.875000000000004);
#58=CYLINDRICAL_SURFACE('',#696,1.5);
#59=CYLINDRICAL_SURFACE('',#697,1.49999999999999);
#60=CYLINDRICAL_SURFACE('',#698,1.50000002235174);
#61=CYLINDRICAL_SURFACE('',#701,2.);
#62=CYLINDRICAL_SURFACE('',#709,1.5);
#63=CYLINDRICAL_SURFACE('',#712,1.5);
#64=CYLINDRICAL_SURFACE('',#714,1.5);
#65=CYLINDRICAL_SURFACE('',#716,1.5);
#66=FACE_OUTER_BOUND('',#103,.T.);
#67=FACE_OUTER_BOUND('',#104,.T.);
#68=FACE_OUTER_BOUND('',#105,.T.);
#69=FACE_OUTER_BOUND('',#106,.T.);
#70=FACE_OUTER_BOUND('',#107,.T.);
#71=FACE_OUTER_BOUND('',#108,.T.);
#72=FACE_OUTER_BOUND('',#109,.T.);
#73=FACE_OUTER_BOUND('',#110,.T.);
#74=FACE_OUTER_BOUND('',#112,.T.);
#75=FACE_OUTER_BOUND('',#114,.T.);
#76=FACE_OUTER_BOUND('',#116,.T.);
#77=FACE_OUTER_BOUND('',#117,.T.);
#78=FACE_OUTER_BOUND('',#118,.T.);
#79=FACE_OUTER_BOUND('',#120,.T.);
#80=FACE_OUTER_BOUND('',#121,.T.);
#81=FACE_OUTER_BOUND('',#122,.T.);
#82=FACE_OUTER_BOUND('',#123,.T.);
#83=FACE_OUTER_BOUND('',#127,.T.);
#84=FACE_OUTER_BOUND('',#128,.T.);
#85=FACE_OUTER_BOUND('',#129,.T.);
#86=FACE_OUTER_BOUND('',#130,.T.);
#87=FACE_OUTER_BOUND('',#131,.T.);
#88=FACE_OUTER_BOUND('',#132,.T.);
#89=FACE_OUTER_BOUND('',#133,.T.);
#90=FACE_OUTER_BOUND('',#134,.T.);
#91=FACE_OUTER_BOUND('',#135,.T.);
#92=FACE_OUTER_BOUND('',#137,.T.);
#93=FACE_OUTER_BOUND('',#138,.T.);
#94=FACE_OUTER_BOUND('',#140,.T.);
#95=FACE_OUTER_BOUND('',#141,.T.);
#96=FACE_OUTER_BOUND('',#142,.T.);
#97=FACE_OUTER_BOUND('',#143,.T.);
#98=FACE_OUTER_BOUND('',#144,.T.);
#99=FACE_OUTER_BOUND('',#145,.T.);
#100=FACE_OUTER_BOUND('',#147,.T.);
#101=FACE_OUTER_BOUND('',#152,.T.);
#102=FACE_OUTER_BOUND('',#153,.T.);
#103=EDGE_LOOP('',(#438,#439,#440,#441,#442));
#104=EDGE_LOOP('',(#443,#444,#445,#446));
#105=EDGE_LOOP('',(#447,#448,#449,#450));
#106=EDGE_LOOP('',(#451,#452,#453,#454));
#107=EDGE_LOOP('',(#455,#456,#457,#458));
#108=EDGE_LOOP('',(#459,#460,#461,#462));
#109=EDGE_LOOP('',(#463,#464,#465,#466));
#110=EDGE_LOOP('',(#467));
#111=EDGE_LOOP('',(#468));
#112=EDGE_LOOP('',(#469));
#113=EDGE_LOOP('',(#470));
#114=EDGE_LOOP('',(#471));
#115=EDGE_LOOP('',(#472));
#116=EDGE_LOOP('',(#473,#474,#475,#476));
#117=EDGE_LOOP('',(#477,#478,#479,#480));
#118=EDGE_LOOP('',(#481,#482));
#119=EDGE_LOOP('',(#483));
#120=EDGE_LOOP('',(#484,#485,#486,#487));
#121=EDGE_LOOP('',(#488,#489,#490,#491,#492));
#122=EDGE_LOOP('',(#493,#494,#495,#496,#497,#498,#499,#500));
#123=EDGE_LOOP('',(#501,#502,#503,#504,#505,#506,#507,#508,#509,#510));
#124=EDGE_LOOP('',(#511));
#125=EDGE_LOOP('',(#512));
#126=EDGE_LOOP('',(#513));
#127=EDGE_LOOP('',(#514,#515,#516,#517));
#128=EDGE_LOOP('',(#518,#519,#520,#521));
#129=EDGE_LOOP('',(#522,#523,#524,#525));
#130=EDGE_LOOP('',(#526,#527,#528,#529));
#131=EDGE_LOOP('',(#530,#531,#532,#533));
#132=EDGE_LOOP('',(#534,#535,#536,#537));
#133=EDGE_LOOP('',(#538,#539,#540,#541));
#134=EDGE_LOOP('',(#542,#543,#544,#545,#546,#547,#548,#549));
#135=EDGE_LOOP('',(#550,#551,#552,#553));
#136=EDGE_LOOP('',(#554));
#137=EDGE_LOOP('',(#555,#556,#557,#558));
#138=EDGE_LOOP('',(#559,#560,#561,#562));
#139=EDGE_LOOP('',(#563,#564,#565,#566));
#140=EDGE_LOOP('',(#567,#568,#569,#570));
#141=EDGE_LOOP('',(#571,#572,#573,#574));
#142=EDGE_LOOP('',(#575,#576,#577,#578));
#143=EDGE_LOOP('',(#579,#580,#581,#582));
#144=EDGE_LOOP('',(#583,#584,#585,#586));
#145=EDGE_LOOP('',(#587,#588,#589,#590));
#146=EDGE_LOOP('',(#591));
#147=EDGE_LOOP('',(#592,#593,#594,#595));
#148=EDGE_LOOP('',(#596));
#149=EDGE_LOOP('',(#597));
#150=EDGE_LOOP('',(#598));
#151=EDGE_LOOP('',(#599));
#152=EDGE_LOOP('',(#600,#601,#602,#603));
#153=EDGE_LOOP('',(#604,#605,#606,#607));
#154=EDGE_LOOP('',(#608,#609,#610,#611));
#155=LINE('',#919,#213);
#156=LINE('',#927,#214);
#157=LINE('',#930,#215);
#158=LINE('',#935,#216);
#159=LINE('',#939,#217);
#160=LINE('',#945,#218);
#161=LINE('',#949,#219);
#162=LINE('',#966,#220);
#163=LINE('',#969,#221);
#164=LINE('',#974,#222);
#165=LINE('',#979,#223);
#166=LINE('',#982,#224);
#167=LINE('',#984,#225);
#168=LINE('',#987,#226);
#169=LINE('',#989,#227);
#170=LINE('',#991,#228);
#171=LINE('',#993,#229);
#172=LINE('',#994,#230);
#173=LINE('',#997,#231);
#174=LINE('',#999,#232);
#175=LINE('',#1001,#233);
#176=LINE('',#1003,#234);
#177=LINE('',#1005,#235);
#178=LINE('',#1007,#236);
#179=LINE('',#1008,#237);
#180=LINE('',#1016,#238);
#181=LINE('',#1018,#239);
#182=LINE('',#1020,#240);
#183=LINE('',#1024,#241);
#184=LINE('',#1026,#242);
#185=LINE('',#1028,#243);
#186=LINE('',#1029,#244);
#187=LINE('',#1031,#245);
#188=LINE('',#1032,#246);
#189=LINE('',#1037,#247);
#190=LINE('',#1040,#248);
#191=LINE('',#1041,#249);
#192=LINE('',#1044,#250);
#193=LINE('',#1045,#251);
#194=LINE('',#1048,#252);
#195=LINE('',#1049,#253);
#196=LINE('',#1051,#254);
#197=LINE('',#1055,#255);
#198=LINE('',#1057,#256);
#199=LINE('',#1059,#257);
#200=LINE('',#1060,#258);
#201=LINE('',#1064,#259);
#202=LINE('',#1068,#260);
#203=LINE('',#1072,#261);
#204=LINE('',#1075,#262);
#205=LINE('',#1078,#263);
#206=LINE('',#1081,#264);
#207=LINE('',#1083,#265);
#208=LINE('',#1084,#266);
#209=LINE('',#1086,#267);
#210=LINE('',#1087,#268);
#211=LINE('',#1089,#269);
#212=LINE('',#1092,#270);
#213=VECTOR('',#728,0.475);
#214=VECTOR('',#737,1.425);
#215=VECTOR('',#742,0.95);
#216=VECTOR('',#747,1.425);
#217=VECTOR('',#752,0.95);
#218=VECTOR('',#759,1.425);
#219=VECTOR('',#764,0.95);
#220=VECTOR('',#785,1.425);
#221=VECTOR('',#790,0.95);
#222=VECTOR('',#795,10.);
#223=VECTOR('',#800,10.);
#224=VECTOR('',#803,10.);
#225=VECTOR('',#806,0.875000000000004);
#226=VECTOR('',#809,10.);
#227=VECTOR('',#810,10.);
#228=VECTOR('',#811,10.);
#229=VECTOR('',#812,10.);
#230=VECTOR('',#813,10.);
#231=VECTOR('',#816,10.);
#232=VECTOR('',#817,10.);
#233=VECTOR('',#818,10.);
#234=VECTOR('',#819,10.);
#235=VECTOR('',#820,10.);
#236=VECTOR('',#821,10.);
#237=VECTOR('',#822,10.);
#238=VECTOR('',#831,1.5);
#239=VECTOR('',#834,1.49999999999999);
#240=VECTOR('',#837,1.50000002235174);
#241=VECTOR('',#840,10.);
#242=VECTOR('',#841,10.);
#243=VECTOR('',#842,10.);
#244=VECTOR('',#843,10.);
#245=VECTOR('',#846,10.);
#246=VECTOR('',#847,10.);
#247=VECTOR('',#852,2.);
#248=VECTOR('',#857,10.);
#249=VECTOR('',#858,10.);
#250=VECTOR('',#861,10.);
#251=VECTOR('',#862,10.);
#252=VECTOR('',#865,10.);
#253=VECTOR('',#866,10.);
#254=VECTOR('',#869,10.);
#255=VECTOR('',#872,10.);
#256=VECTOR('',#873,10.);
#257=VECTOR('',#874,10.);
#258=VECTOR('',#875,10.);
#259=VECTOR('',#878,10.);
#260=VECTOR('',#881,10.);
#261=VECTOR('',#886,10.);
#262=VECTOR('',#889,10.);
#263=VECTOR('',#892,10.);
#264=VECTOR('',#895,10.);
#265=VECTOR('',#898,10.);
#266=VECTOR('',#899,10.);
#267=VECTOR('',#902,10.);
#268=VECTOR('',#903,10.);
#269=VECTOR('',#906,10.);
#270=VECTOR('',#911,10.);
#271=CIRCLE('',#657,0.95);
#272=CIRCLE('',#658,0.875000000000004);
#273=CIRCLE('',#659,0.875000000000004);
#274=CIRCLE('',#661,1.9);
#275=CIRCLE('',#662,0.95);
#276=CIRCLE('',#665,1.9);
#277=CIRCLE('',#666,0.95);
#278=CIRCLE('',#668,0.95);
#279=CIRCLE('',#670,1.9);
#280=CIRCLE('',#671,0.95);
#281=CIRCLE('',#673,0.95);
#282=CIRCLE('',#675,1.49999999999999);
#283=CIRCLE('',#676,0.95);
#284=CIRCLE('',#678,1.5);
#285=CIRCLE('',#680,1.50000002235174);
#286=CIRCLE('',#682,1.9);
#287=CIRCLE('',#683,0.95);
#288=CIRCLE('',#686,3.);
#289=CIRCLE('',#687,0.875000000000004);
#290=CIRCLE('',#689,3.);
#291=CIRCLE('',#693,1.50000002235174);
#292=CIRCLE('',#694,1.49999999999999);
#293=CIRCLE('',#695,1.5);
#294=CIRCLE('',#702,2.);
#295=CIRCLE('',#703,2.);
#296=VERTEX_POINT('',#916);
#297=VERTEX_POINT('',#918);
#298=VERTEX_POINT('',#920);
#299=VERTEX_POINT('',#924);
#300=VERTEX_POINT('',#926);
#301=VERTEX_POINT('',#932);
#302=VERTEX_POINT('',#934);
#303=VERTEX_POINT('',#938);
#304=VERTEX_POINT('',#942);
#305=VERTEX_POINT('',#944);
#306=VERTEX_POINT('',#948);
#307=VERTEX_POINT('',#952);
#308=VERTEX_POINT('',#954);
#309=VERTEX_POINT('',#957);
#310=VERTEX_POINT('',#960);
#311=VERTEX_POINT('',#963);
#312=VERTEX_POINT('',#965);
#313=VERTEX_POINT('',#971);
#314=VERTEX_POINT('',#972);
#315=VERTEX_POINT('',#975);
#316=VERTEX_POINT('',#978);
#317=VERTEX_POINT('',#980);
#318=VERTEX_POINT('',#986);
#319=VERTEX_POINT('',#988);
#320=VERTEX_POINT('',#990);
#321=VERTEX_POINT('',#992);
#322=VERTEX_POINT('',#996);
#323=VERTEX_POINT('',#998);
#324=VERTEX_POINT('',#1000);
#325=VERTEX_POINT('',#1002);
#326=VERTEX_POINT('',#1004);
#327=VERTEX_POINT('',#1006);
#328=VERTEX_POINT('',#1009);
#329=VERTEX_POINT('',#1011);
#330=VERTEX_POINT('',#1013);
#331=VERTEX_POINT('',#1022);
#332=VERTEX_POINT('',#1023);
#333=VERTEX_POINT('',#1025);
#334=VERTEX_POINT('',#1027);
#335=VERTEX_POINT('',#1034);
#336=VERTEX_POINT('',#1036);
#337=VERTEX_POINT('',#1043);
#338=VERTEX_POINT('',#1047);
#339=VERTEX_POINT('',#1053);
#340=VERTEX_POINT('',#1054);
#341=VERTEX_POINT('',#1056);
#342=VERTEX_POINT('',#1058);
#343=VERTEX_POINT('',#1062);
#344=VERTEX_POINT('',#1063);
#345=VERTEX_POINT('',#1065);
#346=VERTEX_POINT('',#1067);
#347=VERTEX_POINT('',#1071);
#348=VERTEX_POINT('',#1073);
#349=VERTEX_POINT('',#1077);
#350=VERTEX_POINT('',#1079);
#351=EDGE_CURVE('',#296,#296,#271,.T.);
#352=EDGE_CURVE('',#296,#297,#155,.T.);
#353=EDGE_CURVE('',#298,#297,#272,.T.);
#354=EDGE_CURVE('',#297,#298,#273,.T.);
#355=EDGE_CURVE('',#299,#299,#274,.T.);
#356=EDGE_CURVE('',#299,#300,#156,.T.);
#357=EDGE_CURVE('',#300,#300,#275,.T.);
#358=EDGE_CURVE('',#300,#296,#157,.T.);
#359=EDGE_CURVE('',#301,#301,#276,.T.);
#360=EDGE_CURVE('',#301,#302,#158,.T.);
#361=EDGE_CURVE('',#302,#302,#277,.T.);
#362=EDGE_CURVE('',#302,#303,#159,.T.);
#363=EDGE_CURVE('',#303,#303,#278,.T.);
#364=EDGE_CURVE('',#304,#304,#279,.T.);
#365=EDGE_CURVE('',#304,#305,#160,.T.);
#366=EDGE_CURVE('',#305,#305,#280,.T.);
#367=EDGE_CURVE('',#305,#306,#161,.T.);
#368=EDGE_CURVE('',#306,#306,#281,.T.);
#369=EDGE_CURVE('',#307,#307,#282,.T.);
#370=EDGE_CURVE('',#308,#308,#283,.T.);
#371=EDGE_CURVE('',#309,#309,#284,.T.);
#372=EDGE_CURVE('',#310,#310,#285,.T.);
#373=EDGE_CURVE('',#311,#311,#286,.T.);
#374=EDGE_CURVE('',#311,#312,#162,.T.);
#375=EDGE_CURVE('',#312,#312,#287,.T.);
#376=EDGE_CURVE('',#312,#308,#163,.T.);
#377=EDGE_CURVE('',#313,#314,#288,.T.);
#378=EDGE_CURVE('',#313,#314,#164,.T.);
#379=EDGE_CURVE('',#315,#315,#289,.T.);
#380=EDGE_CURVE('',#316,#313,#165,.T.);
#381=EDGE_CURVE('',#317,#316,#290,.T.);
#382=EDGE_CURVE('',#314,#317,#166,.T.);
#383=EDGE_CURVE('',#298,#315,#167,.T.);
#384=EDGE_CURVE('',#318,#317,#168,.T.);
#385=EDGE_CURVE('',#318,#319,#169,.T.);
#386=EDGE_CURVE('',#320,#319,#170,.T.);
#387=EDGE_CURVE('',#321,#320,#171,.T.);
#388=EDGE_CURVE('',#316,#321,#172,.T.);
#389=EDGE_CURVE('',#321,#322,#173,.T.);
#390=EDGE_CURVE('',#322,#323,#174,.T.);
#391=EDGE_CURVE('',#323,#324,#175,.T.);
#392=EDGE_CURVE('',#324,#325,#176,.T.);
#393=EDGE_CURVE('',#326,#325,#177,.T.);
#394=EDGE_CURVE('',#326,#327,#178,.T.);
#395=EDGE_CURVE('',#327,#318,#179,.T.);
#396=EDGE_CURVE('',#328,#328,#291,.T.);
#397=EDGE_CURVE('',#329,#329,#292,.T.);
#398=EDGE_CURVE('',#330,#330,#293,.T.);
#399=EDGE_CURVE('',#309,#330,#180,.T.);
#400=EDGE_CURVE('',#307,#329,#181,.T.);
#401=EDGE_CURVE('',#310,#328,#182,.T.);
#402=EDGE_CURVE('',#331,#332,#183,.T.);
#403=EDGE_CURVE('',#331,#333,#184,.T.);
#404=EDGE_CURVE('',#334,#333,#185,.T.);
#405=EDGE_CURVE('',#334,#332,#186,.T.);
#406=EDGE_CURVE('',#327,#333,#187,.T.);
#407=EDGE_CURVE('',#326,#334,#188,.T.);
#408=EDGE_CURVE('',#335,#335,#294,.T.);
#409=EDGE_CURVE('',#335,#336,#189,.T.);
#410=EDGE_CURVE('',#336,#336,#295,.T.);
#411=EDGE_CURVE('',#325,#332,#190,.T.);
#412=EDGE_CURVE('',#324,#331,#191,.T.);
#413=EDGE_CURVE('',#323,#337,#192,.T.);
#414=EDGE_CURVE('',#319,#337,#193,.T.);
#415=EDGE_CURVE('',#338,#320,#194,.T.);
#416=EDGE_CURVE('',#322,#338,#195,.T.);
#417=EDGE_CURVE('',#337,#338,#196,.T.);
#418=EDGE_CURVE('',#339,#340,#197,.T.);
#419=EDGE_CURVE('',#340,#341,#198,.T.);
#420=EDGE_CURVE('',#341,#342,#199,.T.);
#421=EDGE_CURVE('',#342,#339,#200,.T.);
#422=EDGE_CURVE('',#343,#344,#201,.T.);
#423=EDGE_CURVE('',#344,#345,#15,.T.);
#424=EDGE_CURVE('',#345,#346,#202,.T.);
#425=EDGE_CURVE('',#343,#346,#16,.T.);
#426=EDGE_CURVE('',#344,#347,#203,.T.);
#427=EDGE_CURVE('',#347,#348,#17,.T.);
#428=EDGE_CURVE('',#348,#345,#204,.T.);
#429=EDGE_CURVE('',#347,#349,#205,.T.);
#430=EDGE_CURVE('',#349,#350,#18,.T.);
#431=EDGE_CURVE('',#350,#348,#206,.T.);
#432=EDGE_CURVE('',#346,#350,#207,.T.);
#433=EDGE_CURVE('',#349,#343,#208,.T.);
#434=EDGE_CURVE('',#346,#341,#209,.T.);
#435=EDGE_CURVE('',#350,#340,#210,.T.);
#436=EDGE_CURVE('',#345,#342,#211,.T.);
#437=EDGE_CURVE('',#339,#348,#212,.T.);
#438=ORIENTED_EDGE('',*,*,#351,.F.);
#439=ORIENTED_EDGE('',*,*,#352,.T.);
#440=ORIENTED_EDGE('',*,*,#353,.F.);
#441=ORIENTED_EDGE('',*,*,#354,.F.);
#442=ORIENTED_EDGE('',*,*,#352,.F.);
#443=ORIENTED_EDGE('',*,*,#355,.F.);
#444=ORIENTED_EDGE('',*,*,#356,.T.);
#445=ORIENTED_EDGE('',*,*,#357,.T.);
#446=ORIENTED_EDGE('',*,*,#356,.F.);
#447=ORIENTED_EDGE('',*,*,#357,.F.);
#448=ORIENTED_EDGE('',*,*,#358,.T.);
#449=ORIENTED_EDGE('',*,*,#351,.T.);
#450=ORIENTED_EDGE('',*,*,#358,.F.);
#451=ORIENTED_EDGE('',*,*,#359,.F.);
#452=ORIENTED_EDGE('',*,*,#360,.T.);
#453=ORIENTED_EDGE('',*,*,#361,.T.);
#454=ORIENTED_EDGE('',*,*,#360,.F.);
#455=ORIENTED_EDGE('',*,*,#361,.F.);
#456=ORIENTED_EDGE('',*,*,#362,.T.);
#457=ORIENTED_EDGE('',*,*,#363,.F.);
#458=ORIENTED_EDGE('',*,*,#362,.F.);
#459=ORIENTED_EDGE('',*,*,#364,.F.);
#460=ORIENTED_EDGE('',*,*,#365,.T.);
#461=ORIENTED_EDGE('',*,*,#366,.T.);
#462=ORIENTED_EDGE('',*,*,#365,.F.);
#463=ORIENTED_EDGE('',*,*,#366,.F.);
#464=ORIENTED_EDGE('',*,*,#367,.T.);
#465=ORIENTED_EDGE('',*,*,#368,.F.);
#466=ORIENTED_EDGE('',*,*,#367,.F.);
#467=ORIENTED_EDGE('',*,*,#369,.T.);
#468=ORIENTED_EDGE('',*,*,#370,.T.);
#469=ORIENTED_EDGE('',*,*,#371,.T.);
#470=ORIENTED_EDGE('',*,*,#368,.T.);
#471=ORIENTED_EDGE('',*,*,#372,.T.);
#472=ORIENTED_EDGE('',*,*,#363,.T.);
#473=ORIENTED_EDGE('',*,*,#373,.F.);
#474=ORIENTED_EDGE('',*,*,#374,.T.);
#475=ORIENTED_EDGE('',*,*,#375,.T.);
#476=ORIENTED_EDGE('',*,*,#374,.F.);
#477=ORIENTED_EDGE('',*,*,#375,.F.);
#478=ORIENTED_EDGE('',*,*,#376,.T.);
#479=ORIENTED_EDGE('',*,*,#370,.F.);
#480=ORIENTED_EDGE('',*,*,#376,.F.);
#481=ORIENTED_EDGE('',*,*,#377,.T.);
#482=ORIENTED_EDGE('',*,*,#378,.F.);
#483=ORIENTED_EDGE('',*,*,#379,.T.);
#484=ORIENTED_EDGE('',*,*,#380,.F.);
#485=ORIENTED_EDGE('',*,*,#381,.F.);
#486=ORIENTED_EDGE('',*,*,#382,.F.);
#487=ORIENTED_EDGE('',*,*,#377,.F.);
#488=ORIENTED_EDGE('',*,*,#353,.T.);
#489=ORIENTED_EDGE('',*,*,#354,.T.);
#490=ORIENTED_EDGE('',*,*,#383,.T.);
#491=ORIENTED_EDGE('',*,*,#379,.F.);
#492=ORIENTED_EDGE('',*,*,#383,.F.);
#493=ORIENTED_EDGE('',*,*,#382,.T.);
#494=ORIENTED_EDGE('',*,*,#384,.F.);
#495=ORIENTED_EDGE('',*,*,#385,.T.);
#496=ORIENTED_EDGE('',*,*,#386,.F.);
#497=ORIENTED_EDGE('',*,*,#387,.F.);
#498=ORIENTED_EDGE('',*,*,#388,.F.);
#499=ORIENTED_EDGE('',*,*,#380,.T.);
#500=ORIENTED_EDGE('',*,*,#378,.T.);
#501=ORIENTED_EDGE('',*,*,#381,.T.);
#502=ORIENTED_EDGE('',*,*,#388,.T.);
#503=ORIENTED_EDGE('',*,*,#389,.T.);
#504=ORIENTED_EDGE('',*,*,#390,.T.);
#505=ORIENTED_EDGE('',*,*,#391,.T.);
#506=ORIENTED_EDGE('',*,*,#392,.T.);
#507=ORIENTED_EDGE('',*,*,#393,.F.);
#508=ORIENTED_EDGE('',*,*,#394,.T.);
#509=ORIENTED_EDGE('',*,*,#395,.T.);
#510=ORIENTED_EDGE('',*,*,#384,.T.);
#511=ORIENTED_EDGE('',*,*,#396,.T.);
#512=ORIENTED_EDGE('',*,*,#397,.T.);
#513=ORIENTED_EDGE('',*,*,#398,.T.);
#514=ORIENTED_EDGE('',*,*,#371,.F.);
#515=ORIENTED_EDGE('',*,*,#399,.T.);
#516=ORIENTED_EDGE('',*,*,#398,.F.);
#517=ORIENTED_EDGE('',*,*,#399,.F.);
#518=ORIENTED_EDGE('',*,*,#369,.F.);
#519=ORIENTED_EDGE('',*,*,#400,.T.);
#520=ORIENTED_EDGE('',*,*,#397,.F.);
#521=ORIENTED_EDGE('',*,*,#400,.F.);
#522=ORIENTED_EDGE('',*,*,#372,.F.);
#523=ORIENTED_EDGE('',*,*,#401,.T.);
#524=ORIENTED_EDGE('',*,*,#396,.F.);
#525=ORIENTED_EDGE('',*,*,#401,.F.);
#526=ORIENTED_EDGE('',*,*,#402,.F.);
#527=ORIENTED_EDGE('',*,*,#403,.T.);
#528=ORIENTED_EDGE('',*,*,#404,.F.);
#529=ORIENTED_EDGE('',*,*,#405,.T.);
#530=ORIENTED_EDGE('',*,*,#404,.T.);
#531=ORIENTED_EDGE('',*,*,#406,.F.);
#532=ORIENTED_EDGE('',*,*,#394,.F.);
#533=ORIENTED_EDGE('',*,*,#407,.T.);
#534=ORIENTED_EDGE('',*,*,#408,.F.);
#535=ORIENTED_EDGE('',*,*,#409,.T.);
#536=ORIENTED_EDGE('',*,*,#410,.F.);
#537=ORIENTED_EDGE('',*,*,#409,.F.);
#538=ORIENTED_EDGE('',*,*,#402,.T.);
#539=ORIENTED_EDGE('',*,*,#411,.F.);
#540=ORIENTED_EDGE('',*,*,#392,.F.);
#541=ORIENTED_EDGE('',*,*,#412,.T.);
#542=ORIENTED_EDGE('',*,*,#395,.F.);
#543=ORIENTED_EDGE('',*,*,#406,.T.);
#544=ORIENTED_EDGE('',*,*,#403,.F.);
#545=ORIENTED_EDGE('',*,*,#412,.F.);
#546=ORIENTED_EDGE('',*,*,#391,.F.);
#547=ORIENTED_EDGE('',*,*,#413,.T.);
#548=ORIENTED_EDGE('',*,*,#414,.F.);
#549=ORIENTED_EDGE('',*,*,#385,.F.);
#550=ORIENTED_EDGE('',*,*,#389,.F.);
#551=ORIENTED_EDGE('',*,*,#387,.T.);
#552=ORIENTED_EDGE('',*,*,#415,.F.);
#553=ORIENTED_EDGE('',*,*,#416,.F.);
#554=ORIENTED_EDGE('',*,*,#410,.T.);
#555=ORIENTED_EDGE('',*,*,#390,.F.);
#556=ORIENTED_EDGE('',*,*,#416,.T.);
#557=ORIENTED_EDGE('',*,*,#417,.F.);
#558=ORIENTED_EDGE('',*,*,#413,.F.);
#559=ORIENTED_EDGE('',*,*,#418,.T.);
#560=ORIENTED_EDGE('',*,*,#419,.T.);
#561=ORIENTED_EDGE('',*,*,#420,.T.);
#562=ORIENTED_EDGE('',*,*,#421,.T.);
#563=ORIENTED_EDGE('',*,*,#386,.T.);
#564=ORIENTED_EDGE('',*,*,#414,.T.);
#565=ORIENTED_EDGE('',*,*,#417,.T.);
#566=ORIENTED_EDGE('',*,*,#415,.T.);
#567=ORIENTED_EDGE('',*,*,#422,.T.);
#568=ORIENTED_EDGE('',*,*,#423,.T.);
#569=ORIENTED_EDGE('',*,*,#424,.T.);
#570=ORIENTED_EDGE('',*,*,#425,.F.);
#571=ORIENTED_EDGE('',*,*,#426,.T.);
#572=ORIENTED_EDGE('',*,*,#427,.T.);
#573=ORIENTED_EDGE('',*,*,#428,.T.);
#574=ORIENTED_EDGE('',*,*,#423,.F.);
#575=ORIENTED_EDGE('',*,*,#429,.T.);
#576=ORIENTED_EDGE('',*,*,#430,.T.);
#577=ORIENTED_EDGE('',*,*,#431,.T.);
#578=ORIENTED_EDGE('',*,*,#427,.F.);
#579=ORIENTED_EDGE('',*,*,#432,.T.);
#580=ORIENTED_EDGE('',*,*,#430,.F.);
#581=ORIENTED_EDGE('',*,*,#433,.T.);
#582=ORIENTED_EDGE('',*,*,#425,.T.);
#583=ORIENTED_EDGE('',*,*,#432,.F.);
#584=ORIENTED_EDGE('',*,*,#434,.T.);
#585=ORIENTED_EDGE('',*,*,#419,.F.);
#586=ORIENTED_EDGE('',*,*,#435,.F.);
#587=ORIENTED_EDGE('',*,*,#424,.F.);
#588=ORIENTED_EDGE('',*,*,#436,.T.);
#589=ORIENTED_EDGE('',*,*,#420,.F.);
#590=ORIENTED_EDGE('',*,*,#434,.F.);
#591=ORIENTED_EDGE('',*,*,#408,.T.);
#592=ORIENTED_EDGE('',*,*,#422,.F.);
#593=ORIENTED_EDGE('',*,*,#433,.F.);
#594=ORIENTED_EDGE('',*,*,#429,.F.);
#595=ORIENTED_EDGE('',*,*,#426,.F.);
#596=ORIENTED_EDGE('',*,*,#355,.T.);
#597=ORIENTED_EDGE('',*,*,#359,.T.);
#598=ORIENTED_EDGE('',*,*,#364,.T.);
#599=ORIENTED_EDGE('',*,*,#373,.T.);
#600=ORIENTED_EDGE('',*,*,#428,.F.);
#601=ORIENTED_EDGE('',*,*,#437,.F.);
#602=ORIENTED_EDGE('',*,*,#421,.F.);
#603=ORIENTED_EDGE('',*,*,#436,.F.);
#604=ORIENTED_EDGE('',*,*,#418,.F.);
#605=ORIENTED_EDGE('',*,*,#437,.T.);
#606=ORIENTED_EDGE('',*,*,#431,.F.);
#607=ORIENTED_EDGE('',*,*,#435,.T.);
#608=ORIENTED_EDGE('',*,*,#407,.F.);
#609=ORIENTED_EDGE('',*,*,#393,.T.);
#610=ORIENTED_EDGE('',*,*,#411,.T.);
#611=ORIENTED_EDGE('',*,*,#405,.F.);
#612=CONICAL_SURFACE('',#656,0.475,1.02974425867665);
#613=CONICAL_SURFACE('',#660,1.425,0.785398163397448);
#614=CONICAL_SURFACE('',#664,1.425,0.785398163397448);
#615=CONICAL_SURFACE('',#669,1.425,0.785398163397448);
#616=CONICAL_SURFACE('',#681,1.425,0.785398163397448);
#617=ADVANCED_FACE('',(#66),#612,.F.);
#618=ADVANCED_FACE('',(#67),#613,.F.);
#619=ADVANCED_FACE('',(#68),#52,.F.);
#620=ADVANCED_FACE('',(#69),#614,.F.);
#621=ADVANCED_FACE('',(#70),#53,.F.);
#622=ADVANCED_FACE('',(#71),#615,.F.);
#623=ADVANCED_FACE('',(#72),#54,.F.);
#624=ADVANCED_FACE('',(#73,#19),#34,.T.);
#625=ADVANCED_FACE('',(#74,#20),#35,.T.);
#626=ADVANCED_FACE('',(#75,#21),#36,.T.);
#627=ADVANCED_FACE('',(#76),#616,.F.);
#628=ADVANCED_FACE('',(#77),#55,.F.);
#629=ADVANCED_FACE('',(#78,#22),#37,.T.);
#630=ADVANCED_FACE('',(#79),#56,.T.);
#631=ADVANCED_FACE('',(#80),#57,.F.);
#632=ADVANCED_FACE('',(#81),#38,.T.);
#633=ADVANCED_FACE('',(#82,#23,#24,#25),#39,.T.);
#634=ADVANCED_FACE('',(#83),#58,.T.);
#635=ADVANCED_FACE('',(#84),#59,.T.);
#636=ADVANCED_FACE('',(#85),#60,.T.);
#637=ADVANCED_FACE('',(#86),#40,.T.);
#638=ADVANCED_FACE('',(#87),#41,.T.);
#639=ADVANCED_FACE('',(#88),#61,.F.);
#640=ADVANCED_FACE('',(#89),#42,.T.);
#641=ADVANCED_FACE('',(#90),#43,.T.);
#642=ADVANCED_FACE('',(#91,#26),#44,.T.);
#643=ADVANCED_FACE('',(#92),#45,.T.);
#644=ADVANCED_FACE('',(#93,#27),#46,.T.);
#645=ADVANCED_FACE('',(#94),#62,.T.);
#646=ADVANCED_FACE('',(#95),#63,.T.);
#647=ADVANCED_FACE('',(#96),#64,.T.);
#648=ADVANCED_FACE('',(#97),#65,.T.);
#649=ADVANCED_FACE('',(#98),#47,.T.);
#650=ADVANCED_FACE('',(#99,#28),#48,.T.);
#651=ADVANCED_FACE('',(#100,#29,#30,#31,#32),#49,.T.);
#652=ADVANCED_FACE('',(#101),#50,.T.);
#653=ADVANCED_FACE('',(#102,#33),#51,.T.);
#654=CLOSED_SHELL('',(#617,#618,#619,#620,#621,#622,#623,#624,#625,#626,
#627,#628,#629,#630,#631,#632,#633,#634,#635,#636,#637,#638,#639,#640,#641,
#642,#643,#644,#645,#646,#647,#648,#649,#650,#651,#652,#653));
#655=AXIS2_PLACEMENT_3D('',#914,#722,#723);
#656=AXIS2_PLACEMENT_3D('',#915,#724,#725);
#657=AXIS2_PLACEMENT_3D('',#917,#726,#727);
#658=AXIS2_PLACEMENT_3D('',#921,#729,#730);
#659=AXIS2_PLACEMENT_3D('',#922,#731,#732);
#660=AXIS2_PLACEMENT_3D('',#923,#733,#734);
#661=AXIS2_PLACEMENT_3D('',#925,#735,#736);
#662=AXIS2_PLACEMENT_3D('',#928,#738,#739);
#663=AXIS2_PLACEMENT_3D('',#929,#740,#741);
#664=AXIS2_PLACEMENT_3D('',#931,#743,#744);
#665=AXIS2_PLACEMENT_3D('',#933,#745,#746);
#666=AXIS2_PLACEMENT_3D('',#936,#748,#749);
#667=AXIS2_PLACEMENT_3D('',#937,#750,#751);
#668=AXIS2_PLACEMENT_3D('',#940,#753,#754);
#669=AXIS2_PLACEMENT_3D('',#941,#755,#756);
#670=AXIS2_PLACEMENT_3D('',#943,#757,#758);
#671=AXIS2_PLACEMENT_3D('',#946,#760,#761);
#672=AXIS2_PLACEMENT_3D('',#947,#762,#763);
#673=AXIS2_PLACEMENT_3D('',#950,#765,#766);
#674=AXIS2_PLACEMENT_3D('',#951,#767,#768);
#675=AXIS2_PLACEMENT_3D('',#953,#769,#770);
#676=AXIS2_PLACEMENT_3D('',#955,#771,#772);
#677=AXIS2_PLACEMENT_3D('',#956,#773,#774);
#678=AXIS2_PLACEMENT_3D('',#958,#775,#776);
#679=AXIS2_PLACEMENT_3D('',#959,#777,#778);
#680=AXIS2_PLACEMENT_3D('',#961,#779,#780);
#681=AXIS2_PLACEMENT_3D('',#962,#781,#782);
#682=AXIS2_PLACEMENT_3D('',#964,#783,#784);
#683=AXIS2_PLACEMENT_3D('',#967,#786,#787);
#684=AXIS2_PLACEMENT_3D('',#968,#788,#789);
#685=AXIS2_PLACEMENT_3D('',#970,#791,#792);
#686=AXIS2_PLACEMENT_3D('',#973,#793,#794);
#687=AXIS2_PLACEMENT_3D('',#976,#796,#797);
#688=AXIS2_PLACEMENT_3D('',#977,#798,#799);
#689=AXIS2_PLACEMENT_3D('',#981,#801,#802);
#690=AXIS2_PLACEMENT_3D('',#983,#804,#805);
#691=AXIS2_PLACEMENT_3D('',#985,#807,#808);
#692=AXIS2_PLACEMENT_3D('',#995,#814,#815);
#693=AXIS2_PLACEMENT_3D('',#1010,#823,#824);
#694=AXIS2_PLACEMENT_3D('',#1012,#825,#826);
#695=AXIS2_PLACEMENT_3D('',#1014,#827,#828);
#696=AXIS2_PLACEMENT_3D('',#1015,#829,#830);
#697=AXIS2_PLACEMENT_3D('',#1017,#832,#833);
#698=AXIS2_PLACEMENT_3D('',#1019,#835,#836);
#699=AXIS2_PLACEMENT_3D('',#1021,#838,#839);
#700=AXIS2_PLACEMENT_3D('',#1030,#844,#845);
#701=AXIS2_PLACEMENT_3D('',#1033,#848,#849);
#702=AXIS2_PLACEMENT_3D('',#1035,#850,#851);
#703=AXIS2_PLACEMENT_3D('',#1038,#853,#854);
#704=AXIS2_PLACEMENT_3D('',#1039,#855,#856);
#705=AXIS2_PLACEMENT_3D('',#1042,#859,#860);
#706=AXIS2_PLACEMENT_3D('',#1046,#863,#864);
#707=AXIS2_PLACEMENT_3D('',#1050,#867,#868);
#708=AXIS2_PLACEMENT_3D('',#1052,#870,#871);
#709=AXIS2_PLACEMENT_3D('',#1061,#876,#877);
#710=AXIS2_PLACEMENT_3D('',#1066,#879,#880);
#711=AXIS2_PLACEMENT_3D('',#1069,#882,#883);
#712=AXIS2_PLACEMENT_3D('',#1070,#884,#885);
#713=AXIS2_PLACEMENT_3D('',#1074,#887,#888);
#714=AXIS2_PLACEMENT_3D('',#1076,#890,#891);
#715=AXIS2_PLACEMENT_3D('',#1080,#893,#894);
#716=AXIS2_PLACEMENT_3D('',#1082,#896,#897);
#717=AXIS2_PLACEMENT_3D('',#1085,#900,#901);
#718=AXIS2_PLACEMENT_3D('',#1088,#904,#905);
#719=AXIS2_PLACEMENT_3D('',#1090,#907,#908);
#720=AXIS2_PLACEMENT_3D('',#1091,#909,#910);
#721=AXIS2_PLACEMENT_3D('',#1093,#912,#913);
#722=DIRECTION('axis',(0.,0.,1.));
#723=DIRECTION('refdir',(1.,0.,0.));
#724=DIRECTION('center_axis',(0.,0.,-1.));
#725=DIRECTION('ref_axis',(-1.,0.,0.));
#726=DIRECTION('center_axis',(0.,0.,1.));
#727=DIRECTION('ref_axis',(-1.,0.,0.));
#728=DIRECTION('',(-0.857167300702112,-1.04972719113862E-16,0.515038074910054));
#729=DIRECTION('center_axis',(0.,0.,-1.));
#730=DIRECTION('ref_axis',(1.,0.,0.));
#731=DIRECTION('center_axis',(0.,0.,-1.));
#732=DIRECTION('ref_axis',(1.,0.,0.));
#733=DIRECTION('center_axis',(0.,0.,-1.));
#734=DIRECTION('ref_axis',(-1.,0.,0.));
#735=DIRECTION('center_axis',(0.,0.,1.));
#736=DIRECTION('ref_axis',(-1.,0.,0.));
#737=DIRECTION('',(-0.707106781186547,-8.65956056235493E-17,0.707106781186547));
#738=DIRECTION('center_axis',(0.,0.,1.));
#739=DIRECTION('ref_axis',(-1.,0.,0.));
#740=DIRECTION('center_axis',(0.,0.,1.));
#741=DIRECTION('ref_axis',(-1.,0.,0.));
#742=DIRECTION('',(0.,0.,1.));
#743=DIRECTION('center_axis',(0.,0.,-1.));
#744=DIRECTION('ref_axis',(-1.,0.,0.));
#745=DIRECTION('center_axis',(0.,0.,1.));
#746=DIRECTION('ref_axis',(-1.,0.,0.));
#747=DIRECTION('',(-0.707106781186547,-8.65956056235493E-17,0.707106781186547));
#748=DIRECTION('center_axis',(0.,0.,1.));
#749=DIRECTION('ref_axis',(-1.,0.,0.));
#750=DIRECTION('center_axis',(0.,0.,1.));
#751=DIRECTION('ref_axis',(-1.,0.,0.));
#752=DIRECTION('',(0.,0.,1.));
#753=DIRECTION('center_axis',(0.,0.,-1.));
#754=DIRECTION('ref_axis',(-1.,0.,0.));
#755=DIRECTION('center_axis',(0.,0.,-1.));
#756=DIRECTION('ref_axis',(-1.,0.,0.));
#757=DIRECTION('center_axis',(0.,0.,1.));
#758=DIRECTION('ref_axis',(-1.,0.,0.));
#759=DIRECTION('',(-0.707106781186547,-8.65956056235493E-17,0.707106781186547));
#760=DIRECTION('center_axis',(0.,0.,1.));
#761=DIRECTION('ref_axis',(-1.,0.,0.));
#762=DIRECTION('center_axis',(0.,0.,1.));
#763=DIRECTION('ref_axis',(-1.,0.,0.));
#764=DIRECTION('',(0.,0.,1.));
#765=DIRECTION('center_axis',(0.,0.,-1.));
#766=DIRECTION('ref_axis',(-1.,0.,0.));
#767=DIRECTION('center_axis',(0.,0.,1.));
#768=DIRECTION('ref_axis',(-1.,0.,0.));
#769=DIRECTION('center_axis',(0.,0.,1.));
#770=DIRECTION('ref_axis',(-1.,0.,0.));
#771=DIRECTION('center_axis',(0.,0.,-1.));
#772=DIRECTION('ref_axis',(-1.,0.,0.));
#773=DIRECTION('center_axis',(0.,0.,1.));
#774=DIRECTION('ref_axis',(-1.,0.,0.));
#775=DIRECTION('center_axis',(0.,0.,1.));
#776=DIRECTION('ref_axis',(-1.,0.,0.));
#777=DIRECTION('center_axis',(0.,0.,1.));
#778=DIRECTION('ref_axis',(-1.,0.,0.));
#779=DIRECTION('center_axis',(0.,0.,1.));
#780=DIRECTION('ref_axis',(-1.,0.,0.));
#781=DIRECTION('center_axis',(0.,0.,-1.));
#782=DIRECTION('ref_axis',(-1.,0.,0.));
#783=DIRECTION('center_axis',(0.,0.,1.));
#784=DIRECTION('ref_axis',(-1.,0.,0.));
#785=DIRECTION('',(-0.707106781186547,-8.65956056235493E-17,0.707106781186547));
#786=DIRECTION('center_axis',(0.,0.,1.));
#787=DIRECTION('ref_axis',(-1.,0.,0.));
#788=DIRECTION('center_axis',(0.,0.,1.));
#789=DIRECTION('ref_axis',(-1.,0.,0.));
#790=DIRECTION('',(0.,0.,1.));
#791=DIRECTION('center_axis',(0.,0.,1.));
#792=DIRECTION('ref_axis',(1.,0.,0.));
#793=DIRECTION('center_axis',(0.,0.,1.));
#794=DIRECTION('ref_axis',(1.,0.,0.));
#795=DIRECTION('',(0.,-1.,0.));
#796=DIRECTION('center_axis',(0.,0.,-1.));
#797=DIRECTION('ref_axis',(1.,0.,0.));
#798=DIRECTION('center_axis',(0.,0.,-1.));
#799=DIRECTION('ref_axis',(-1.,1.22464679914735E-16,0.));
#800=DIRECTION('',(0.,0.,1.));
#801=DIRECTION('center_axis',(0.,0.,-1.));
#802=DIRECTION('ref_axis',(1.,0.,0.));
#803=DIRECTION('',(0.,0.,-1.));
#804=DIRECTION('center_axis',(0.,0.,-1.));
#805=DIRECTION('ref_axis',(1.,0.,0.));
#806=DIRECTION('',(0.,0.,1.));
#807=DIRECTION('center_axis',(-1.,0.,0.));
#808=DIRECTION('ref_axis',(0.,-1.,0.));
#809=DIRECTION('',(0.,1.,0.));
#810=DIRECTION('',(0.,0.,1.));
#811=DIRECTION('',(0.,-1.,0.));
#812=DIRECTION('',(0.,0.,1.));
#813=DIRECTION('',(0.,1.,0.));
#814=DIRECTION('center_axis',(0.,0.,1.));
#815=DIRECTION('ref_axis',(1.,0.,0.));
#816=DIRECTION('',(-1.,0.,0.));
#817=DIRECTION('',(0.,-1.,0.));
#818=DIRECTION('',(1.,0.,0.));
#819=DIRECTION('',(0.,-1.,0.));
#820=DIRECTION('',(-1.,0.,0.));
#821=DIRECTION('',(0.,1.,0.));
#822=DIRECTION('',(1.,0.,0.));
#823=DIRECTION('center_axis',(0.,0.,-1.));
#824=DIRECTION('ref_axis',(-1.,0.,0.));
#825=DIRECTION('center_axis',(0.,0.,-1.));
#826=DIRECTION('ref_axis',(-1.,0.,0.));
#827=DIRECTION('center_axis',(0.,0.,-1.));
#828=DIRECTION('ref_axis',(-1.,0.,0.));
#829=DIRECTION('center_axis',(0.,0.,1.));
#830=DIRECTION('ref_axis',(-1.,0.,0.));
#831=DIRECTION('',(0.,0.,-1.));
#832=DIRECTION('center_axis',(0.,0.,1.));
#833=DIRECTION('ref_axis',(-1.,0.,0.));
#834=DIRECTION('',(0.,0.,-1.));
#835=DIRECTION('center_axis',(0.,0.,1.));
#836=DIRECTION('ref_axis',(-1.,0.,0.));
#837=DIRECTION('',(0.,0.,-1.));
#838=DIRECTION('center_axis',(0.,0.,-1.));
#839=DIRECTION('ref_axis',(-1.,0.,0.));
#840=DIRECTION('',(0.,-1.,0.));
#841=DIRECTION('',(1.,0.,0.));
#842=DIRECTION('',(0.,1.,0.));
#843=DIRECTION('',(-1.,0.,0.));
#844=DIRECTION('center_axis',(-1.,0.,0.));
#845=DIRECTION('ref_axis',(0.,-1.,0.));
#846=DIRECTION('',(0.,0.,1.));
#847=DIRECTION('',(0.,0.,1.));
#848=DIRECTION('center_axis',(3.85185988877447E-33,-1.,0.));
#849=DIRECTION('ref_axis',(0.,0.,1.));
#850=DIRECTION('center_axis',(3.85185988877447E-33,-1.,0.));
#851=DIRECTION('ref_axis',(0.,0.,1.));
#852=DIRECTION('',(3.85185988877447E-33,-1.,0.));
#853=DIRECTION('center_axis',(0.,1.,0.));
#854=DIRECTION('ref_axis',(0.,0.,1.));
#855=DIRECTION('center_axis',(1.,0.,0.));
#856=DIRECTION('ref_axis',(0.,1.,0.));
#857=DIRECTION('',(0.,0.,1.));
#858=DIRECTION('',(0.,0.,1.));
#859=DIRECTION('center_axis',(0.,1.,0.));
#860=DIRECTION('ref_axis',(-1.,0.,0.));
#861=DIRECTION('',(0.,0.,1.));
#862=DIRECTION('',(-1.,0.,0.));
#863=DIRECTION('center_axis',(0.,-1.,0.));
#864=DIRECTION('ref_axis',(1.,0.,0.));
#865=DIRECTION('',(1.,0.,0.));
#866=DIRECTION('',(0.,0.,1.));
#867=DIRECTION('center_axis',(1.,0.,0.));
#868=DIRECTION('ref_axis',(0.,1.,0.));
#869=DIRECTION('',(0.,1.,0.));
#870=DIRECTION('center_axis',(0.,0.,1.));
#871=DIRECTION('ref_axis',(1.,0.,0.));
#872=DIRECTION('',(1.,0.,0.));
#873=DIRECTION('',(0.,1.,0.));
#874=DIRECTION('',(-1.,-3.85185988877447E-33,0.));
#875=DIRECTION('',(0.,-1.,0.));
#876=DIRECTION('center_axis',(1.,3.85185988877447E-33,0.));
#877=DIRECTION('ref_axis',(0.,0.707106781186547,-0.707106781186548));
#878=DIRECTION('',(-1.,-3.85185988877447E-33,0.));
#879=DIRECTION('center_axis',(0.707106781186548,0.707106781186548,-2.09345661157837E-15));
#880=DIRECTION('ref_axis',(-0.707106781186547,0.707106781186547,-2.09345661157837E-15));
#881=DIRECTION('',(1.,3.85185988877447E-33,0.));
#882=DIRECTION('center_axis',(0.707106781186546,-0.707106781186549,0.));
#883=DIRECTION('ref_axis',(0.707106781186549,0.707106781186546,0.));
#884=DIRECTION('center_axis',(0.,1.,0.));
#885=DIRECTION('ref_axis',(-0.707106781186547,0.,-0.707106781186548));
#886=DIRECTION('',(0.,-1.,0.));
#887=DIRECTION('center_axis',(-0.707106781186549,0.707106781186546,2.09345661157837E-15));
#888=DIRECTION('ref_axis',(-0.707106781186546,-0.707106781186549,2.09345661157836E-15));
#889=DIRECTION('',(0.,1.,0.));
#890=DIRECTION('center_axis',(-1.,0.,0.));
#891=DIRECTION('ref_axis',(0.,-0.707106781186553,-0.707106781186543));
#892=DIRECTION('',(1.,0.,0.));
#893=DIRECTION('center_axis',(-0.707106781186548,-0.707106781186548,0.));
#894=DIRECTION('ref_axis',(0.707106781186547,-0.707106781186547,0.));
#895=DIRECTION('',(-1.,0.,0.));
#896=DIRECTION('center_axis',(0.,-1.,0.));
#897=DIRECTION('ref_axis',(0.707106781186548,0.,-0.707106781186547));
#898=DIRECTION('',(0.,-1.,0.));
#899=DIRECTION('',(0.,1.,0.));
#900=DIRECTION('center_axis',(1.,0.,0.));
#901=DIRECTION('ref_axis',(0.,-1.,0.));
#902=DIRECTION('',(0.,0.,1.));
#903=DIRECTION('',(0.,0.,1.));
#904=DIRECTION('center_axis',(-3.85185988877447E-33,1.,0.));
#905=DIRECTION('ref_axis',(1.,3.85185988877447E-33,0.));
#906=DIRECTION('',(0.,0.,1.));
#907=DIRECTION('center_axis',(0.,0.,-1.));
#908=DIRECTION('ref_axis',(-1.,0.,0.));
#909=DIRECTION('center_axis',(-1.,0.,0.));
#910=DIRECTION('ref_axis',(0.,1.,0.));
#911=DIRECTION('',(0.,0.,-1.));
#912=DIRECTION('center_axis',(0.,-1.,0.));
#913=DIRECTION('ref_axis',(-1.,0.,0.));
#914=CARTESIAN_POINT('',(0.,0.,0.));
#915=CARTESIAN_POINT('Origin',(51.9999988377094,-100.999997742474,-5.71459120596191));
#916=CARTESIAN_POINT('',(52.9499988377094,-100.999997742474,-6.));
#917=CARTESIAN_POINT('Origin',(51.9999988377094,-100.999997742474,-6.));
#918=CARTESIAN_POINT('',(52.8749953279976,-100.999997742474,-5.95493334472532));
#919=CARTESIAN_POINT('',(52.4749988377094,-100.999997742474,-5.71459120596191));
#920=CARTESIAN_POINT('',(51.1250007748604,-101.000001505017,-5.95493545357293));
#921=CARTESIAN_POINT('Origin',(52.0000007748604,-101.000001505017,-5.95493545357293));
#922=CARTESIAN_POINT('Origin',(52.0000007748604,-101.000001505017,-5.95493545357293));
#923=CARTESIAN_POINT('Origin',(51.9999988377094,-100.999997742474,-11.525));
#924=CARTESIAN_POINT('',(53.8999988377094,-100.999997742474,-12.));
#925=CARTESIAN_POINT('Origin',(51.9999988377094,-100.999997742474,-12.));
#926=CARTESIAN_POINT('',(52.9499988377094,-100.999997742474,-11.05));
#927=CARTESIAN_POINT('',(53.4249988377094,-100.999997742474,-11.525));
#928=CARTESIAN_POINT('Origin',(51.9999988377094,-100.999997742474,-11.05));
#929=CARTESIAN_POINT('Origin',(51.9999988377094,-100.999997742474,-9.));
#930=CARTESIAN_POINT('',(52.9499988377094,-100.999997742474,-9.));
#931=CARTESIAN_POINT('Origin',(12.5000001862645,-27.0000004023314,-11.525));
#932=CARTESIAN_POINT('',(14.4000001862645,-27.0000004023314,-12.));
#933=CARTESIAN_POINT('Origin',(12.5000001862645,-27.0000004023314,-12.));
#934=CARTESIAN_POINT('',(13.4500001862645,-27.0000004023314,-11.05));
#935=CARTESIAN_POINT('',(13.9250001862645,-27.0000004023314,-11.525));
#936=CARTESIAN_POINT('Origin',(12.5000001862645,-27.0000004023314,-11.05));
#937=CARTESIAN_POINT('Origin',(12.5000001862645,-27.0000004023314,-9.));
#938=CARTESIAN_POINT('',(13.4500001862645,-27.0000004023314,-6.));
#939=CARTESIAN_POINT('',(13.4500001862645,-27.0000004023314,-9.));
#940=CARTESIAN_POINT('Origin',(12.5000001862645,-27.0000004023314,-6.));
#941=CARTESIAN_POINT('Origin',(35.0000005215406,-82.0000012218952,-11.525));
#942=CARTESIAN_POINT('',(36.9000005215406,-82.0000012218952,-12.));
#943=CARTESIAN_POINT('Origin',(35.0000005215406,-82.0000012218952,-12.));
#944=CARTESIAN_POINT('',(35.9500005215406,-82.0000012218952,-11.05));
#945=CARTESIAN_POINT('',(36.4250005215406,-82.0000012218952,-11.525));
#946=CARTESIAN_POINT('Origin',(35.0000005215406,-82.0000012218952,-11.05));
#947=CARTESIAN_POINT('Origin',(35.0000005215406,-82.0000012218952,-9.));
#948=CARTESIAN_POINT('',(35.9500005215406,-82.0000012218952,-6.));
#949=CARTESIAN_POINT('',(35.9500005215406,-82.0000012218952,-9.));
#950=CARTESIAN_POINT('Origin',(35.0000005215406,-82.0000012218952,-6.));
#951=CARTESIAN_POINT('Origin',(47.9999999441206,-5.49999994412065,-6.));
#952=CARTESIAN_POINT('',(49.4999999441206,-5.49999994412065,-6.));
#953=CARTESIAN_POINT('Origin',(47.9999999441206,-5.49999994412065,-6.));
#954=CARTESIAN_POINT('',(48.9499999441206,-5.49999994412065,-6.));
#955=CARTESIAN_POINT('Origin',(47.9999999441206,-5.49999994412065,-6.));
#956=CARTESIAN_POINT('Origin',(35.0000005215406,-82.0000012218952,-6.));
#957=CARTESIAN_POINT('',(36.5000005215406,-82.0000012218952,-6.));
#958=CARTESIAN_POINT('Origin',(35.0000005215406,-82.0000012218952,-6.));
#959=CARTESIAN_POINT('Origin',(12.5000001862645,-27.0000004023314,-6.));
#960=CARTESIAN_POINT('',(14.0000002086163,-27.0000004023314,-6.));
#961=CARTESIAN_POINT('Origin',(12.5000001862645,-27.0000004023314,-6.));
#962=CARTESIAN_POINT('Origin',(47.9999999441206,-5.49999994412065,-11.525));
#963=CARTESIAN_POINT('',(49.8999999441207,-5.49999994412065,-12.));
#964=CARTESIAN_POINT('Origin',(47.9999999441206,-5.49999994412065,-12.));
#965=CARTESIAN_POINT('',(48.9499999441206,-5.49999994412065,-11.05));
#966=CARTESIAN_POINT('',(49.4249999441206,-5.49999994412065,-11.525));
#967=CARTESIAN_POINT('Origin',(47.9999999441206,-5.49999994412065,-11.05));
#968=CARTESIAN_POINT('Origin',(47.9999999441206,-5.49999994412065,-9.));
#969=CARTESIAN_POINT('',(48.9499999441206,-5.49999994412065,-9.));
#970=CARTESIAN_POINT('Origin',(51.7500004135072,-101.000001505017,-5.));
#971=CARTESIAN_POINT('',(53.5000000372529,-98.0419614862704,-5.));
#972=CARTESIAN_POINT('',(53.5000000372529,-103.958041523764,-5.));
#973=CARTESIAN_POINT('Origin',(53.0000007897615,-101.000001505017,-5.));
#974=CARTESIAN_POINT('',(53.5000000372529,-51.7500007711351,-5.));
#975=CARTESIAN_POINT('',(51.1250007748604,-101.000001505017,-5.));
#976=CARTESIAN_POINT('Origin',(52.0000007748604,-101.000001505017,-5.));
#977=CARTESIAN_POINT('Origin',(53.0000007897615,-101.000001505017,0.));
#978=CARTESIAN_POINT('',(53.5000000372529,-98.0419614862704,-10.));
#979=CARTESIAN_POINT('',(53.5000000372529,-98.0419614862704,-7.));
#980=CARTESIAN_POINT('',(53.5000000372529,-103.958041523764,-10.));
#981=CARTESIAN_POINT('Origin',(53.0000007897615,-101.000001505017,-10.));
#982=CARTESIAN_POINT('',(53.5000000372529,-103.958041523764,0.));
#983=CARTESIAN_POINT('Origin',(52.0000007748604,-101.000001505017,0.));
#984=CARTESIAN_POINT('',(51.1250007748604,-101.000001505017,0.));
#985=CARTESIAN_POINT('Origin',(53.5000000372529,-2.5000000372529,-10.));
#986=CARTESIAN_POINT('',(53.5000000372529,-117.500000037253,-10.));
#987=CARTESIAN_POINT('',(53.5000000372529,-31.2500004656613,-10.));
#988=CARTESIAN_POINT('',(53.5000000372529,-117.500000037253,1.11022302462516E-15));
#989=CARTESIAN_POINT('',(53.5000000372529,-117.500000037253,-10.));
#990=CARTESIAN_POINT('',(53.5000000372529,-2.5000000372529,1.11022302462516E-15));
#991=CARTESIAN_POINT('',(53.5000000372529,-2.5000000372529,1.11022302462516E-15));
#992=CARTESIAN_POINT('',(53.5000000372529,-2.5000000372529,-10.));
#993=CARTESIAN_POINT('',(53.5000000372529,-2.5000000372529,-10.));
#994=CARTESIAN_POINT('',(53.5000000372529,-31.2500004656613,-10.));
#995=CARTESIAN_POINT('Origin',(28.,-60.0000008940697,-10.));
#996=CARTESIAN_POINT('',(2.5000000372529,-2.5000000372529,-10.));
#997=CARTESIAN_POINT('',(15.2500000186265,-2.5000000372529,-10.));
#998=CARTESIAN_POINT('',(2.5000000372529,-117.500000037253,-10.));
#999=CARTESIAN_POINT('',(2.5000000372529,-88.7500004656613,-10.));
#1000=CARTESIAN_POINT('',(25.000000372529,-117.500001788139,-10.));
#1001=CARTESIAN_POINT('',(26.5000001862645,-117.500000037253,-10.));
#1002=CARTESIAN_POINT('',(25.000000372529,-120.000001788139,-10.));
#1003=CARTESIAN_POINT('',(25.000000372529,-90.0000013411045,-10.));
#1004=CARTESIAN_POINT('',(31.000000372529,-120.000001788139,-10.));
#1005=CARTESIAN_POINT('',(56.,-120.,-10.));
#1006=CARTESIAN_POINT('',(31.000000372529,-117.500001788139,-10.));
#1007=CARTESIAN_POINT('',(31.000000372529,-88.7500013411045,-10.));
#1008=CARTESIAN_POINT('',(40.7500000186265,-117.500000037253,-10.));
#1009=CARTESIAN_POINT('',(14.0000002086163,-27.0000004023314,-10.));
#1010=CARTESIAN_POINT('Origin',(12.5000001862645,-27.0000004023314,-10.));
#1011=CARTESIAN_POINT('',(49.4999999441206,-5.49999994412065,-10.));
#1012=CARTESIAN_POINT('Origin',(47.9999999441206,-5.49999994412065,-10.));
#1013=CARTESIAN_POINT('',(36.5000005215406,-82.0000012218952,-10.));
#1014=CARTESIAN_POINT('Origin',(35.0000005215406,-82.0000012218952,-10.));
#1015=CARTESIAN_POINT('Origin',(35.0000005215406,-82.0000012218952,-12.));
#1016=CARTESIAN_POINT('',(36.5000005215406,-82.0000012218952,-12.));
#1017=CARTESIAN_POINT('Origin',(47.9999999441206,-5.49999994412065,-12.));
#1018=CARTESIAN_POINT('',(49.4999999441206,-5.49999994412065,-12.));
#1019=CARTESIAN_POINT('Origin',(12.5000001862645,-27.0000004023314,-12.));
#1020=CARTESIAN_POINT('',(14.0000002086163,-27.0000004023314,-12.));
#1021=CARTESIAN_POINT('Origin',(28.000000372529,-118.750001788139,-5.));
#1022=CARTESIAN_POINT('',(25.000000372529,-117.500001788139,-5.));
#1023=CARTESIAN_POINT('',(25.000000372529,-120.000001788139,-5.));
#1024=CARTESIAN_POINT('',(25.000000372529,-119.375001788139,-5.));
#1025=CARTESIAN_POINT('',(31.000000372529,-117.500001788139,-5.));
#1026=CARTESIAN_POINT('',(31.000000372529,-117.500001788139,-5.));
#1027=CARTESIAN_POINT('',(31.000000372529,-120.000001788139,-5.));
#1028=CARTESIAN_POINT('',(31.000000372529,-118.125001788139,-5.));
#1029=CARTESIAN_POINT('',(25.000000372529,-120.000001788139,-5.));
#1030=CARTESIAN_POINT('Origin',(31.000000372529,-117.500001788139,-10.));
#1031=CARTESIAN_POINT('',(31.000000372529,-117.500001788139,-10.));
#1032=CARTESIAN_POINT('',(31.000000372529,-120.000001788139,-10.));
#1033=CARTESIAN_POINT('Origin',(45.171776614484,-1.5,-5.57712112034662));
#1034=CARTESIAN_POINT('',(45.171776614484,0.,-7.57712112034662));
#1035=CARTESIAN_POINT('Origin',(45.171776614484,0.,-5.57712112034662));
#1036=CARTESIAN_POINT('',(45.171776614484,-2.5000000372529,-7.57712112034662));
#1037=CARTESIAN_POINT('',(45.171776614484,-1.5,-7.57712112034662));
#1038=CARTESIAN_POINT('Origin',(45.171776614484,-2.5000000372529,-5.57712112034662));
#1039=CARTESIAN_POINT('Origin',(25.000000372529,-120.000001788139,-10.));
#1040=CARTESIAN_POINT('',(25.000000372529,-120.000001788139,-10.));
#1041=CARTESIAN_POINT('',(25.000000372529,-117.500001788139,-10.));
#1042=CARTESIAN_POINT('Origin',(53.5000000372529,-117.500000037253,-10.));
#1043=CARTESIAN_POINT('',(2.5000000372529,-117.500000037253,1.11022302462516E-15));
#1044=CARTESIAN_POINT('',(2.5000000372529,-117.500000037253,-10.));
#1045=CARTESIAN_POINT('',(53.5000000372529,-117.500000037253,1.11022302462516E-15));
#1046=CARTESIAN_POINT('Origin',(2.5000000372529,-2.5000000372529,-10.));
#1047=CARTESIAN_POINT('',(2.5000000372529,-2.5000000372529,1.11022302462516E-15));
#1048=CARTESIAN_POINT('',(2.5000000372529,-2.5000000372529,1.11022302462516E-15));
#1049=CARTESIAN_POINT('',(2.5000000372529,-2.5000000372529,-10.));
#1050=CARTESIAN_POINT('Origin',(2.5000000372529,-117.500000037253,-10.));
#1051=CARTESIAN_POINT('',(2.5000000372529,-117.500000037253,1.11022302462516E-15));
#1052=CARTESIAN_POINT('Origin',(28.,-60.0000008940697,1.11022302462516E-15));
#1053=CARTESIAN_POINT('',(0.,-120.,1.11022302462516E-15));
#1054=CARTESIAN_POINT('',(56.,-120.,1.11022302462516E-15));
#1055=CARTESIAN_POINT('',(56.,-120.,1.11022302462516E-15));
#1056=CARTESIAN_POINT('',(56.,0.,1.11022302462516E-15));
#1057=CARTESIAN_POINT('',(56.,2.1570415377137E-31,1.11022302462516E-15));
#1058=CARTESIAN_POINT('',(0.,0.,1.11022302462516E-15));
#1059=CARTESIAN_POINT('',(0.,0.,1.11022302462516E-15));
#1060=CARTESIAN_POINT('',(0.,-120.,1.11022302462516E-15));
#1061=CARTESIAN_POINT('Origin',(14.,-1.5,-10.5));
#1062=CARTESIAN_POINT('',(54.5,-1.5,-12.));
#1063=CARTESIAN_POINT('',(1.5,-1.5,-12.));
#1064=CARTESIAN_POINT('',(14.,-1.5,-12.));
#1065=CARTESIAN_POINT('',(0.,0.,-10.5));
#1066=CARTESIAN_POINT('Origin',(1.5,-1.5,-10.5));
#1067=CARTESIAN_POINT('',(56.,2.1570415377137E-31,-10.5));
#1068=CARTESIAN_POINT('',(14.,0.,-10.5));
#1069=CARTESIAN_POINT('Origin',(54.5,-1.5,-10.5));
#1070=CARTESIAN_POINT('Origin',(1.5,-90.0000004470348,-10.5));
#1071=CARTESIAN_POINT('',(1.49999999999999,-118.5,-12.));
#1072=CARTESIAN_POINT('',(1.5,-90.0000004470348,-12.));
#1073=CARTESIAN_POINT('',(0.,-120.,-10.5));
#1074=CARTESIAN_POINT('Origin',(1.5,-118.5,-10.5));
#1075=CARTESIAN_POINT('',(0.,-90.0000004470348,-10.5));
#1076=CARTESIAN_POINT('Origin',(42.,-118.5,-10.5));
#1077=CARTESIAN_POINT('',(54.5,-118.5,-12.));
#1078=CARTESIAN_POINT('',(42.,-118.5,-12.));
#1079=CARTESIAN_POINT('',(56.,-120.,-10.5));
#1080=CARTESIAN_POINT('Origin',(54.5,-118.5,-10.5));
#1081=CARTESIAN_POINT('',(42.,-120.,-10.5));
#1082=CARTESIAN_POINT('Origin',(54.5,-30.0000004470348,-10.5));
#1083=CARTESIAN_POINT('',(56.,-30.0000004470348,-10.5));
#1084=CARTESIAN_POINT('',(54.5,-30.0000004470348,-12.));
#1085=CARTESIAN_POINT('Origin',(56.,2.1570415377137E-31,-10.));
#1086=CARTESIAN_POINT('',(56.,2.1570415377137E-31,-10.));
#1087=CARTESIAN_POINT('',(56.,-120.,-10.));
#1088=CARTESIAN_POINT('Origin',(0.,0.,-10.));
#1089=CARTESIAN_POINT('',(0.,0.,-10.));
#1090=CARTESIAN_POINT('Origin',(28.,-60.0000008940697,-12.));
#1091=CARTESIAN_POINT('Origin',(0.,-120.,-10.));
#1092=CARTESIAN_POINT('',(0.,-120.,-10.));
#1093=CARTESIAN_POINT('Origin',(56.,-120.,-10.));
#1094=UNCERTAINTY_MEASURE_WITH_UNIT(LENGTH_MEASURE(0.01),#1098,
'DISTANCE_ACCURACY_VALUE',
'Maximum model space distance between geometric entities at asserted c
onnectivities');
#1095=UNCERTAINTY_MEASURE_WITH_UNIT(LENGTH_MEASURE(0.01),#1098,
'DISTANCE_ACCURACY_VALUE',
'Maximum model space distance between geometric entities at asserted c
onnectivities');
#1096=(
GEOMETRIC_REPRESENTATION_CONTEXT(3)
GLOBAL_UNCERTAINTY_ASSIGNED_CONTEXT((#1094))
GLOBAL_UNIT_ASSIGNED_CONTEXT((#1098,#1099,#1100))
REPRESENTATION_CONTEXT('','3D')
);
#1097=(
GEOMETRIC_REPRESENTATION_CONTEXT(3)
GLOBAL_UNCERTAINTY_ASSIGNED_CONTEXT((#1095))
GLOBAL_UNIT_ASSIGNED_CONTEXT((#1098,#1099,#1100))
REPRESENTATION_CONTEXT('','3D')
);
#1098=(
LENGTH_UNIT()
NAMED_UNIT(*)
SI_UNIT(.MILLI.,.METRE.)
);
#1099=(
NAMED_UNIT(*)
PLANE_ANGLE_UNIT()
SI_UNIT($,.RADIAN.)
);
#1100=(
NAMED_UNIT(*)
SI_UNIT($,.STERADIAN.)
SOLID_ANGLE_UNIT()
);
#1101=SHAPE_DEFINITION_REPRESENTATION(#1102,#1103);
#1102=PRODUCT_DEFINITION_SHAPE('',$,#1105);
#1103=SHAPE_REPRESENTATION('',(#655),#1096);
#1104=PRODUCT_DEFINITION_CONTEXT('part definition',#1109,'design');
#1105=PRODUCT_DEFINITION('2026-04-19-06-02-20-391','PCB',#1106,#1104);
#1106=PRODUCT_DEFINITION_FORMATION('',$,#1111);
#1107=PRODUCT_RELATED_PRODUCT_CATEGORY('PCB','PCB',(#1111));
#1108=APPLICATION_PROTOCOL_DEFINITION('international standard',
'automotive_design',2009,#1109);
#1109=APPLICATION_CONTEXT(
'Core Data for Automotive Mechanical Design Process');
#1110=PRODUCT_CONTEXT('part definition',#1109,'mechanical');
#1111=PRODUCT('2026-04-19-06-02-20-391','PCB',
'KiCad electronic assembly',(#1110));
#1112=PRESENTATION_STYLE_ASSIGNMENT((#1113));
#1113=SURFACE_STYLE_USAGE(.BOTH.,#1114);
#1114=SURFACE_SIDE_STYLE('',(#1115));
#1115=SURFACE_STYLE_FILL_AREA(#1116);
#1116=FILL_AREA_STYLE('Steel - Satin',(#1117));
#1117=FILL_AREA_STYLE_COLOUR('Steel - Satin',#1118);
#1118=COLOUR_RGB('Steel - Satin',0.627450980392157,0.627450980392157,0.627450980392157);
ENDSEC;
END-ISO-10303-21;
